<svg viewBox="0 0 310.73 100" xmlns="http://www.w3.org/2000/svg"><g stroke="#0e140e" stroke-miterlimit="10" stroke-width="3"><path d="m278.53 51.4h8.63l8 13.25.68-13.25 13.25 2.06-2.8 40.1-11-.69-8.36-12.87-2.46 13.65-13.53-.65z" fill="#de2927"/><path d="m269.28 51.23-2.34 11.82-13.76 2.12-.18 2.91 12.16.91-.57 9.09-10.85 1 1 3.08 13.19.12 4.86 11.36h-31.48l-3.09-27.3 3.09-15.08z" fill="#41a548"/><path d="m230.63 71.11-8.63-5.54-2.17 2.74 15.41 11.31-7.48 14.11h-18.31l-12.79-10.17 5.53-9.31 11 6.23 1.65-2.57-16.16-9.6 15.32-17.14h13.76l10.24 10.83z" fill="#eec51a"/><path d="m194.94 51.23-2.34 11.82-13.76 2.12-.17 2.91 12.16.91-.57 9.09-10.85 1 1 3.08 13.19.12 4.86 11.36h-31.46l-3.09-27.3 3.09-15.11z" fill="#18a0db"/><path d="m142.07 51.46-.28 11.54 9-10.23 8.17 8.69-10.38 11.25 15.3 10.91-9.42 10.16-12.79-13.88 2.34 14h-14.67l.8-42.44z" fill="#41a548"/><path d="m121.75 71.11-8.63-5.54-2.12 2.74 15.42 11.31-7.48 14.11h-18.38l-12.79-10.17 5.54-9.31 11 6.23 1.69-2.57-16.16-9.6 15.3-17.14h13.76l10.21 10.83z" fill="#18a0db"/><path d="m90.34 90.81-17.24 2.75-1.37-10.11-13.88-.35-3.14 10.8-16.61-3 22.78-38.3 11.42-1.14zm-28.89-18.56 8.74.23-2-5.88-4.4-.18z" fill="#eec51a"/><path d="m43.7 52.15v17.13l-14.28-2.34 3.94 26.9h-20.44l3.08-26.9-14.5-.74v-14.8z" fill="#de2927"/><path d="m226.26 29.11 17.53-2.11 1.6 13.2-31.75 3.8-1.64-42.31 15.87 1.83z" fill="#18a0db"/><path d="m214.67 41.5-17.24 2.74-1.38-10.11-13.87-.34-3.18 10.79-16.62-3 22.83-38.29 11.42-1.14zm-28.89-18.56 8.73.23-2-5.89-4.39-.17z" fill="#de2927"/><path d="m167.73 11.8 2.46 22.9-11.82 9.66h-23.64v-39.81l21-2.57zm-19.92 17.88 7.71-2.68v-6.23l-7.71-3.54z" fill="#eec51a"/><path d="m130.34 10 1 13.31-5.94 6.63 10.56 9.31-12.39 5.36-13-11.08 1.94 11h-13.12l-3.31-40.44 23.69-1.83zm-20.1 12.22 3.48.46 3.48-5-6.62-3.55z" fill="#41a548"/><path d="m94.42 1.92-2.34 11.82-13.76 2.12-.17 2.91 12.16.91-.57 9.08-10.85 1 1 3.09 13.19.11 4.83 11.34h-31.47l-3.08-27.3 3.08-15.08z" fill="#18a0db"/><path d="m111 88.93 2.69 4.68-1.89 3.49-5.31 1.2-2.49-4.17 2.45-5.2z" fill="#eec51a"/></g></svg>
