<svg xmlns="http://www.w3.org/2000/svg" viewBox="0 0 500 500"><defs><style>.cls-1{fill:#fff0}.cls-2{fill:#de1f26}.cls-3{fill:#fff}.cls-4{fill:#ebcd8c}.cls-5{fill:#a31d21}.cls-6{fill:#26140b}</style></defs><title>erdaltsksn-profile-v1</title><g id="Layer_2" data-name="Layer 2"><g id="Profile"><circle id="Background" class="cls-1" cx="250" cy="250" r="250"/><g id="Source"><g id="Hat_Top" data-name="Hat Top"><path id="Hat_Top_Fill" data-name="Hat Top Fill" class="cls-2" d="M390.84,233.88c.18-32.5-12.78-70.88-38.26-105.62C302.12,50,234.72,36.69,194.76,67.38c-63.22,48.54-35.86,105.33,10.66,168.73,40,54.56,98,82.37,139.21,70.07a48.72,48.72,0,1,0,46.21-72.3Z"/><path id="Hat_Top_Stroke" data-name="Hat Top Stroke" d="M430.47,253.21a52.89,52.89,0,0,0-35.87-21.66c-.36-24.5-7.43-48.72-18.09-70.66-6.29-12.94-14.29-24.53-22.2-36.48a226.51,226.51,0,0,0-24.48-31C303.72,66,266.1,44,226.92,50.64c-18.2,3.1-33.42,12.32-46.56,25-15.45,15-26,34-26.38,55.8s8.47,42.73,18.79,61.38a364.77,364.77,0,0,0,20.69,32.58c7.71,11,15.67,21.8,24.81,31.69C246.56,287.68,289,316,332.69,311.2a78.72,78.72,0,0,0,9.78-1.7c15.77,24.4,49.47,31.62,74,15.44C440.1,309.37,446.92,276.5,430.47,253.21Zm-46.55,75.11c-15-1.23-28.24-10.2-35.7-23.17-.92-1.6-3.18-1.91-4.81-1.43-38.78,11.28-80.36-13.2-107.73-38.65-18.54-17.25-33.46-38.07-46.93-59.4-11.56-18.28-22.41-38.26-26-59.86-3.26-19.36.76-38.38,12.34-54.34,10.72-14.81,26.22-28.1,43.93-33.56,34.61-10.65,70.42,6.86,95.65,30a198.62,198.62,0,0,1,23.51,25.85,345.07,345.07,0,0,1,23.05,34c12.69,21.46,22,45.35,25,70.21a134.41,134.41,0,0,1,1,15,.7.7,0,0,0-.05.25c.1,7.23-1.94,14.13-3,21.22-.24,1.57,7.21,1.73,7.58-.55.87-5.61,2.33-11.12,2.85-16.76,22.76,4.21,39.09,25.38,37.57,48.82C430.44,310.35,408.63,330.34,383.92,328.32Z"/><ellipse id="Name_Circle_Fill" data-name="Name Circle Fill" class="cls-3" cx="231.07" cy="139.04" rx="53.11" ry="55.49"/><path id="Name_Circle_Stroke" data-name="Name Circle Stroke" d="M280.24,138.42c-.21,21-12.13,41.31-32.1,49.19-19.54,7.7-41.6,1.37-54.71-14.88C180,156,178.36,131.9,188.6,113.22,198.65,94.8,219.65,84,240.45,88c23.71,4.55,39.57,27,39.8,50.44,0,4.42,7.92,5.95,7.88,1.23-.25-24.08-14.24-46.84-37-55.82a56.2,56.2,0,0,0-63.63,16.71c-15.65,19.06-17.83,47.11-5.43,68.41,12.07,20.74,36,32.7,59.86,28.07,27.16-5.28,45.91-30.21,46.17-57.41C288.16,135.22,280.28,133.73,280.24,138.42Z"/><g id="E"><path id="E-2" data-name="E" class="cls-2" d="M258.78,102.05l-6.72,16.08-20.12-1-1.05,4.08,17,4.8-3.42,12.7L228.78,137l.49,4.65,18.67,4,3.61,17.52L207,154.06l3.44-39.59L219.11,94Z"/><path id="E_Stroke" data-name="E Stroke" d="M255.34,166.9l-51.55-10.47,3.71-42.68,9.83-23.13,45.57,9.25L254,121.18l-15-.72L251.48,124l-4.84,18-3.43-.38,7.23,1.53Zm-45.21-15.21,37.62,7.64-2.32-11.24-18.87-4-1.1-10.44,16.79,1.87,2-7.43-17-4.79,2.38-9.2,20.46,1,4.53-10.85-33.79-6.86L213.3,115.2Z"/></g></g><g id="Face"><path id="Face_Fill" data-name="Face Fill" class="cls-4" d="M350.11,295.16c-1,0,1-.05,0,0-10.84-61.28-53.67-73.9-111.57-135.83-58.67,0-106.24,59-106.24,131.85a161.54,161.54,0,0,0,4.55,38.31c-10.61,3.92-18.79,11.2-22.15,21.1-7.08,20.91,13.86,46.93,41.89,56.43,3.19,1.08,2.41.53,5.58,1.13,5.6,22.7,27.65,38.42,54.78,38.42,20.47,0,38.05-9.22,48-23.75,11.51.12,23.82-4.47,34.87-12.12,8.14-5.63,14.11-14.8,18.49-22.45,8.21,4.62,18.78,9.39,28.87,9.39,28.89-.76,53.44-33.2,54.88-58.46C402.1,307.79,381.51,295.16,350.11,295.16Z"/><path id="Face_Stroke" data-name="Face Stroke" d="M350.35,291.17h-.29l-.5,8h.55l-.76-7.91h-.27l5.65,3.14c-4.45-24.62-15.93-45.59-33.25-63.52-19.81-20.56-42.87-37.79-63.31-57.71-3-2.94-6-5.93-9-8.95-2.8-2.87-6.2-8.33-10.43-8.87-5.68-.67-12.39.6-18,1.69a98.26,98.26,0,0,0-33.66,13.59c-21.43,13.57-37.41,34.79-47.22,58-13.51,31.87-15.76,68.15-7.72,101.7l2.45-4.37c-10.55,4-20,11.53-24.09,22.35-3.31,8.74-2.09,18.13,1.65,26.53,8.57,19.15,29.33,33.88,49.71,37.39l-4.38-3.2c9.54,37,55.58,50.68,88,35.51a58.73,58.73,0,0,0,23.33-19.38l-4.21,1.72c12.75-.05,24.71-4.43,35.41-11.18,10.12-6.39,16.81-15.83,22.69-26l-7.09,2c8.09,4.49,16.68,8.34,25.93,9.67a43.89,43.89,0,0,0,21.71-2.82c13.27-5,24.45-15.42,32.08-27.22,7.25-11.22,12.29-24.34,11.07-37.89-1-11.76-5.67-23.07-15.16-30.52-11.55-9.09-26.71-11.55-41-11.62-5.94,0-6.5,7.95-.49,8,10.75.05,22.07,1.25,31.48,6.87,8.49,5.05,13.39,13.48,15.17,23,4.28,23-11.45,48.27-31.21,59.26-5.59,3.11-12.06,5.36-18.51,5.31-9.18-.05-18-4.32-25.87-8.68a5.12,5.12,0,0,0-7,1.8l-.09.15a83.12,83.12,0,0,1-10.74,15.24c-4.73,5.11-10.87,8.88-17.17,11.76a52.64,52.64,0,0,1-19.47,5c-3.64.16-4.79,1-7,3.86a46.13,46.13,0,0,1-6.06,6.59c-17.73,15.67-45.72,17.56-65.9,5.49a45,45,0,0,1-20.68-27.41c-.54-2.07-2.49-2.88-4.38-3.2-16.33-2.82-33.46-16-40.94-31.22-3.16-6.42-4.55-14.09-2.28-21,3.14-9.33,10.89-15.44,19.83-18.85a3.87,3.87,0,0,0,2.45-4.38c-7.58-31.68-5.58-65.78,6.82-96,9.86-24,26.73-46.18,49.81-58.78a84.83,84.83,0,0,1,40.18-10.61L235,162c18.6,19.83,39.08,37.49,59.47,55.42,15,13.18,29.88,27,39.57,44.7,5.77,10.56,9.29,22.06,11.43,33.87.45,2.53,3.53,3.3,5.65,3.14h.27c5.31-.4,4.33-7.94-.76-7.91h-.54c-2.28.09-4.79,1.09-5,3.7-.18,2.39,2.28,4.22,4.48,4.28h.28C355.81,299.29,356.36,291.32,350.35,291.17Z"/></g><g id="Hat_Front" data-name="Hat Front"><path id="Hat_Front_Fill" data-name="Hat Front Fill" class="cls-5" d="M251.38,164.61c-64.63-42.76-132-53.52-150.49-24-13.09,20.91,7.76,52.93,42,85.59,12.8-29.38,51.17-37.61,95.53-28.42,31.08,6.44,37.15,16.67,57.24,40.16,14.78,13.27,20.85,11.37,32.6,8.34C302.12,209.13,284.31,187.53,251.38,164.61Z"/><path id="Hat_Front_Stroke" data-name="Hat Front Stroke" d="M256.69,163.1a289.23,289.23,0,0,0-60-30.71c-16.92-6.15-34.88-10.54-53-10.76-13.77-.17-29,2.11-40.23,10.61-10.71,8.06-14,20.52-10.79,33.24,2.7,10.74,9,20.59,15.41,29.45,8.65,11.89,19,22.59,29.52,32.74,2.07,2,9.6.8,10.8-1.88,15.09-33.73,58.27-32,88.71-25.35a80,80,0,0,1,22.31,8.07c5.81,3.26,10.74,7.89,15.28,12.72,10.93,11.62,20.47,28.32,38.09,29.55,5.87.41,11.74-1.25,17.36-2.71,1.15-.29,4.7-1.51,3.46-3.28C322.48,229,311.09,213.33,298.07,199a246.31,246.31,0,0,0-41.35-35.89c-2-1.37-5-.89-7.15-.27-.54.15-5.31,2-3.46,3.28a250.77,250.77,0,0,1,40.63,35.1c13.37,14.46,24.94,30.48,36.27,46.55l3.46-3.28c-6.4,1.65-10.38,2.27-16.43-1.15-8.34-4.66-13.85-12.71-20-19.78-9.38-10.86-19.56-19.43-33.36-24.12-18.1-6.17-38.29-8.4-57.34-7.32-16.62.94-33.61,5.31-47.06,15.45a48.75,48.75,0,0,0-14.91,19l10.81-1.88c-15.39-14.74-31-31-40.35-50.41-5.9-12.26-8.43-27.28,1.67-38.1,8.34-9,21.31-10.26,32.88-9.8,18.69.76,37.15,6.48,54.34,13.47A286.13,286.13,0,0,1,246,166.15c2,1.34,5,.91,7.15.28C253.72,166.24,258.58,164.35,256.69,163.1Z"/></g><g id="Mouth"><path id="Mouth_Outline" data-name="Mouth Outline" d="M238.44,362.58a84.36,84.36,0,0,0-1.71-8.9c-6.72,8.13-16,12.31-35.19,18.37-5,.95-11.8,3.25-18.06,4.29a4.24,4.24,0,0,0-.76-.1h0c-3.87-.22-9.52.5-12.6-2.38s-9.29,1.43-6.07,4.43c3.78,3.52,8.51,4.13,13.36,4.41.37,1.76.82,3.53,1.12,5.27,3.7,20.71,17.63,34.85,39.25,31.53C234.3,416.55,242.13,383.28,238.44,362.58Z"/><path id="Tongue" class="cls-2" d="M208.05,412.9a21.78,21.78,0,0,1-9.91-3.88c-2.63-1.87-9.8-7.74-6.06-11,4.54-4.05,13.5-3.25,19.32-5.36,4-1.46,17.44-7.78,19.46-.94,1,3.44-1,7.47-2.38,10.61C225.08,410.15,216.48,414,208.05,412.9Z"/><path id="Teeth" class="cls-3" d="M193.76,380.56c10.28-1.51,19.79-5.87,29.05-10.42,2.56-1.25,5.47-3.26,8.42-3.16,2.27.06,2.44,5,2.41,6.59-.11,4.63-2.81,5.94-6.58,7.58a152.78,152.78,0,0,1-15.78,6.06c-10,3-23,8.65-26.45-3.53-.63-2.22,2.89-2.45,4.24-2.56C190.64,381,192.21,380.79,193.76,380.56Z"/></g><path id="Ear" d="M334.77,366.25s-.24-24.25,18.82-34.16c0,0,15.27-9.68,28.05-1,0,0-18.95-1.72-29.42,9.79,0,0,14.12,2.68,15.83,8.25,0,0-13.32-7-20.47-.75C347.6,348.45,338.42,355.93,334.77,366.25Z"/><path id="Sideburn" d="M356.54,296.84a4.73,4.73,0,0,0-.31-1L341.31,262c-1.11-2.53-4.55-3-5.45-.12-2.6,8.14-7.88,15.46-15.46,19.64a21.43,21.43,0,0,1-7.84,2.76c-1.66.18-2.66-.33-4.28-.76a21.65,21.65,0,0,0-7.39-.61c-8.52.76-16.12,7-17.27,15.7-.94,7.05,2.53,13.56,8,17.53A19.76,19.76,0,0,0,286.79,338a21.71,21.71,0,0,0,23.39,13.16,20.58,20.58,0,0,0,12.28-6.82,19.71,19.71,0,0,0,3.33-5.55c.76-1.89.87-4.22,1.52-5.84,1.39-3.44,4.28-6.66,6.57-9.51,2.84-3.53,5.84-6.91,8.91-10.23,4.23-4.55,8.56-9,13-13.34A3,3,0,0,0,356.54,296.84Z"/><path id="Mustache" d="M274.52,314.61c-.33-5.23-3.85-9.95-6.7-14.11a3.42,3.42,0,0,0-2.33-.9c-2.07-.44-4.74-.48-5,.49-1.23,5.16-8.27,8.14-12.54,10.16a176.46,176.46,0,0,1-22.31,8.24.69.69,0,0,0-.47.29,22.88,22.88,0,0,0-2.64.64c-3.79,1.08-7.58,1.93-11.37,2.75-6.66,1.44-13.43,1.82-19.94,3.88a90.17,90.17,0,0,1-10.54,3.09c-3.62.69-7.39.4-11.07,1.27a21.22,21.22,0,0,0-11.11,6.93c-6.43-7.32-17.3-10.09-26.2-6.13-1.66-4.28-4.33-8.11-8.57-10.33a18.11,18.11,0,0,0-9.37-1.81c-1-6.47-3.53-14.06-10.32-15.8-7.37-1.87-12.13,1.3-14.95,8.05-4.33,10.32-4,35.63,9.84,38,1.39,6,4.32,11.85,10.05,14.71a17.3,17.3,0,0,0,13.8.69c3.69,6.63,9.94,10.54,18,11.34a20.15,20.15,0,0,0,18.43-7.87c6.74,6.51,17.35,8.42,26.56,6.57a21.88,21.88,0,0,0,17.13-16.58c6.07,5.12,14.5,7.24,22.86,6.69,11.79-.74,23-10,23.28-22.29,9.54.46,18-3.66,22.67-12.8A29.78,29.78,0,0,0,274.52,314.61Z"/><g id="Right_Eye" data-name="Right Eye"><ellipse id="Right_Eye_Outline" data-name="Right Eye Outline" class="cls-3" cx="241.54" cy="267.24" rx="40.66" ry="26.07" transform="translate(-73.29 442.28) rotate(-76.96)"/><path id="Right_Eye_Outline_Stroke" data-name="Right Eye Outline Stroke" d="M263.46,273.19c-2.78,11.53-9.37,26.69-21.7,30.79-11.9,3.95-19.86-8.29-22.29-18.19-3.46-14.05-.26-30.48,7.58-42.56,5.53-8.51,15.88-17.8,26.32-11.11,13,8.33,12.88,28.55,9.94,41.72-.7,3.15,6.61,1.52,7.27-1.45,3.17-14.3,2.59-34.57-10.7-44-11.82-8.39-26.42-1.42-34.95,8.23-11.3,12.8-16.11,32-13.2,48.7,2.28,13.1,11.23,26.06,26,24.35,17.87-2.06,28.86-20.83,32.67-36.64C271.37,269.17,264.15,270.33,263.46,273.19Z"/><ellipse id="Right_Eye_Cornea" data-name="Right Eye Cornea" class="cls-6" cx="247.87" cy="271.23" rx="30.86" ry="18.46" transform="translate(-72.27 451.55) rotate(-76.97)"/><path id="Right_Eye_Cornea_Stroke" data-name="Right Eye Cornea Stroke" d="M264.24,274.56c-2.22,9.09-7,20.06-16.11,24.11s-15.21-4-17-12.13c-2.36-10.79.13-23.17,5.94-32.51,3.88-6.25,12-14.56,20.06-10.14,10.05,5.51,9,21.81,7,31.07-.45,2.06,2.93,3.17,3.43.83,2.32-10.61,2.42-25.45-6.61-33.27-7.72-6.68-17.38-2.41-23.31,4.36-8.52,9.72-12.13,24.39-10.39,37.06,1.22,8.83,6.52,19.82,17,19.43,13.1-.5,20.63-16.34,23.27-27.15C268,274.27,264.78,272.33,264.24,274.56Z"/><ellipse id="Right_Eye_Iris" data-name="Right Eye Iris" cx="252.34" cy="275.32" rx="22.01" ry="13.31" transform="translate(-72.8 459.07) rotate(-76.97)"/><ellipse id="Right_Eye_Pupil" data-name="Right Eye Pupil" class="cls-3" cx="256.74" cy="267.42" rx="6.74" ry="4.88" transform="translate(-32.56 499.24) rotate(-84.87)"/></g><g id="Left_Eye" data-name="Left Eye"><path id="Left_Eye_Outline" data-name="Left Eye Outline" class="cls-3" d="M189.57,247.61c-2.44,16.9-12.57,29.25-22.64,27.57s-16.27-16.74-13.84-33.64,12.57-29.25,22.64-27.58S192,230.7,189.57,247.61Z"/><path id="Left_Eye_Outline_Stroke" data-name="Left Eye Outline Stroke" d="M186.75,247.74c-1.36,8.74-7.15,26.59-19,25-5.3-.7-8.53-6.41-10.22-10.92-2.42-6.49-2.48-13.64-1.59-20.46,1.15-8.76,7.31-26.57,19-25,5.31.71,8.54,6.42,10.22,10.92,2.42,6.5,2.49,13.64,1.59,20.46-.43,3.28,5.23,2.79,5.63-.28,1.63-12.39-.76-33.94-16.61-36-15.66-2.07-23.61,18.19-25.5,30.24-1.93,12.36,1,34,16.61,36s23.61-18.19,25.5-30.24C192.89,244.22,187.23,244.7,186.75,247.74Z"/><path id="Left_Eye_Cornea" data-name="Left Eye Cornea" class="cls-6" d="M188.66,254.14c-1.85,12.84-9.15,22.27-16.31,21.08s-11.47-12.56-9.62-25.39,9.14-22.27,16.3-21.08S190.5,241.33,188.66,254.14Z"/><path id="Left_Eye_Cornea_Stroke" data-name="Left Eye Cornea Stroke" d="M186.82,254.33a37.18,37.18,0,0,1-4.47,13.31c-2.07,3.46-6,8.42-10.53,6.26-8-3.79-8.28-17-7.23-24.31.84-5.85,6.4-24.37,15.49-19.18,7.58,4.34,7.67,16.71,6.71,24.12-.1.76,3.56.5,3.72-.75,1-7.79.7-20.22-7.25-24.71-5.92-3.35-12.71.46-16.36,5.3-6,8-7.85,19.82-5.64,29.44,1.52,6.71,6,13.49,13.73,12.12,9.85-1.73,14.12-13.36,15.49-22C190.67,252.84,187,253.33,186.82,254.33Z"/><path id="Left_Eye_Iris" data-name="Left Eye Iris" d="M187.86,255.23c-1.32,9.16-6.56,15.92-11.7,15s-8.25-9-6.93-18.13,6.56-15.91,11.7-15S189.18,246.08,187.86,255.23Z"/><path id="Left_Eye_Pupil" data-name="Left Eye Pupil" class="cls-3" d="M186.21,249.27c0,3.09-1.76,5.58-3.85,5.54s-3.73-2.57-3.68-5.67,1.76-5.58,3.85-5.54S186.29,246.18,186.21,249.27Z"/></g><g id="Nose"><path id="Nose_Fill" data-name="Nose Fill" class="cls-4" d="M197.75,320.42c-8.84,17.27-32.69,25.66-56.35,24.73-31.09-1.23-56.23-21.72-55.19-48.16s22.16-54.8,56-44.42c20.63,7.44,34.65,13.35,43.36,21.34"/><path id="Nose_Stroke" data-name="Nose Stroke" d="M192.3,319.2c-8.57,16.15-28.94,21.75-46,22.11-17.18.36-34.83-5.57-46-19.14-10.28-12.51-10.3-29.09-4.29-43.51,5.81-13.94,18.19-24.83,33.88-24.34,10.36.33,20.86,5.65,30.24,9.67,7.58,3.25,15,7,21.23,12.55,3.79,3.38,13.42-.57,8.21-5.25-5.93-5.34-13.12-9.13-20.33-12.46-9.55-4.39-19.8-8.85-30-11.15A46.26,46.26,0,0,0,94,262.13c-10,11.37-15.36,28.38-12.83,43.37,2.82,16.58,15.27,29,29.87,36.23,15.85,7.86,34.75,9,51.93,5.73,16-3,32.35-10.9,40.27-25.82,2.62-4.94-8.54-6.86-10.89-2.44Z"/></g><g id="Eyebrow"><path id="Right_Eyebrow" data-name="Right Eyebrow" d="M261.05,211.1c11.37,5.11,17.64,17.7,17.63,32.3,9.1-22.37,5.26-45.14-9.1-51.6s-34.35,6-45,28C235.63,209.79,249.5,205.91,261.05,211.1Z"/><path id="Left_Eyebrow" data-name="Left Eyebrow" d="M170,195.72c8.83,0,16.45,8.84,20,21.65.06-1.18.09-2.36.09-3.56,0-21.08-8.83-38.17-19.71-38.17s-19.73,17.12-19.73,38.17v1.32C154.45,203.54,161.68,195.72,170,195.72Z"/></g></g></g></g></svg>
